<svg xmlns="http://www.w3.org/2000/svg" viewBox="0 0 890.5 356"><style type="text/css">  
	.st0{fill:#FAFAFA;}
</style><circle class="st0" cx="397.5" cy="17" r="5"/><circle class="st0" cx="397.5" cy="256" r="5"/><circle class="st0" cx="377.5" cy="256" r="5"/><circle class="st0" cx="417.5" cy="256" r="5"/><path class="st0" d="M150 327c4.7 0 8.5-3.8 8.5-8.5s-3.8-8.5-8.5-8.5 -8.5 3.8-8.5 8.5S145.3 327 150 327zM150 312c3.6 0 6.5 2.9 6.5 6.5s-2.9 6.5-6.5 6.5 -6.5-2.9-6.5-6.5S146.4 312 150 312z"/><rect x="133" y="102" class="st0" width="34" height="3"/><path class="st0" d="M51 339c4.7 0 8.5-3.8 8.5-8.5S55.7 322 51 322s-8.5 3.8-8.5 8.5S46.3 339 51 339zM51 324c3.6 0 6.5 2.9 6.5 6.5S54.6 337 51 337s-6.5-2.9-6.5-6.5S47.4 324 51 324z"/><rect x="40" y="190" class="st0" width="20" height="3"/><path class="st0" d="M860.5 306V119c0-9.9-8.1-18-18-18h-247V18c0-9.9-8.1-18-18-18h-363c-9.9 0-18 8.1-18 18v70h-118c-9.9 0-18 8.1-18 18v71h-42c-9.9 0-18 8.1-18 18v2 134c0 9.9 8.1 18 18 18h64c6.2 0 11.7-3.2 14.9-8h124.1c9.9 0 18-8.1 18-18v-49h118v39.5c0 9.1-7.4 16.5-16.5 16.5h-29.5v11h170v-11h-27.8c-9.1 0-16.5-7.4-16.5-16.5V274h118.3v32h-29v17c0 9.9 8.1 18 18 18h77.3c1.4 8.5 8.9 15 17.7 15h53c8 0 14.8-5.3 17.1-12.5h10.9c3.5 0 6.7-0.9 9.5-2.5h142.5c9.9 0 18-8.1 18-18v-17H860.5zM842.5 104c8.3 0 15 6.7 15 15v11h-299v-11c0-8.3 6.7-15 15-15H842.5zM199.5 18c0-8.3 6.7-15 15-15h363c8.3 0 15 6.7 15 15v12h-393V18zM3.5 195c0-8.3 6.7-15 15-15h64c8.3 0 15 6.7 15 15v2h-94V195zM97.5 331c0 8.3-6.7 15-15 15h-64c-8.3 0-15-6.7-15-15v-13h94V331zM3.5 317V198h94v119H3.5zM236.5 323c0 8.3-6.7 15-15 15H99.1c0.9-2.2 1.4-4.5 1.4-7v-29h136V323zM236.5 301h-136V195c0-9.9-8.1-18-18-18h-19v-62h173V301zM236.5 114h-173v-8c0-8.3 6.7-15 15-15h143c8.3 0 15 6.7 15 15V114zM221.5 88h-22V31h393v70h-19c-9.9 0-18 8.1-18 18v121h-316V106C239.5 96.1 231.4 88 221.5 88zM360.5 313.5V274h6.7v47.5c0 3-0.8 5.9-2.4 8.5h-13.4C356.9 326.5 360.5 320.4 360.5 313.5zM478.5 333v5h-164v-5H341h25.4 61.9 25.4H478.5zM426.5 330h-58.3c1.3-2.7 2-5.5 2-8.5V274h54.3v47.5C424.5 324.5 425.2 327.3 426.5 330zM443.3 330h-13.4c-1.6-2.6-2.4-5.5-2.4-8.5V274h6.7v39.5C434.2 320.4 437.8 326.5 443.3 330zM239.5 271v-30h316v30H239.5zM621.5 338h-77c-8.3 0-15-6.7-15-15v-14h92V338zM707.5 338c0 8.3-6.7 15-15 15h-53c-8.3 0-15-6.7-15-15v-70h83V338zM621.5 265v41h-63V131h299v175H740v-13c0-10.8-8.7-19.5-19.5-19.5h-10V265H621.5zM720.5 284.5c4.7 0 8.5 3.8 8.5 8.5v13h-18.5v-21.5H720.5zM710.5 312H729v12c0 4.7-3.8 8.5-8.5 8.5h-10V312zM720.5 340.5H711v-5h9.5c6.3 0 11.5-5.2 11.5-11.5v-31c0-6.3-5.2-11.5-11.5-11.5H711v-5h9.5c9.1 0 16.5 7.4 16.5 16.5v31C737 333.1 729.6 340.5 720.5 340.5zM887.5 323c0 8.3-6.7 15-15 15H734c0 0-0.1 0-0.1 0.1 3.7-3.6 6-8.5 6-14.1v-15h147.5V323z"/><circle class="st0" cx="573.5" cy="323" r="5"/><circle class="st0" cx="553.5" cy="323" r="5"/><circle class="st0" cx="593.5" cy="323" r="5"/><circle class="st0" cx="708.5" cy="117" r="5"/></svg>