<svg xmlns="http://www.w3.org/2000/svg" viewBox="0 0 130.2 25"><style type="text/css">  
	.st0{fill:#FFFFFF;}
	.st1{fill-rule:evenodd;clip-rule:evenodd;fill:#FFFFFF;}
</style><path class="st0" d="M2.4 24.8h1.1V1.2H6v-1H0v1h2.4V24.8z"/><path class="st0" d="M10.3 0.2v24.6h1.1V0.2H10.3z"/><path class="st0" d="M23.8 5.8c0 0-0.1 9.4-0.1 12.2v6.8h1.1V0.2h-1.2l-3 19.8L17.7 0.2h-1.2v24.6h1.1v-6.3c0-2.6-0.1-12.7-0.1-12.7l2.6 19 0.9 0L23.8 5.8z"/><path class="st0" d="M29.7 24.8h2.2c2.5 0 3.3-1.3 3.3-3.9V15c0-1.9-0.8-2.8-1.7-3 0.8-0.3 1.4-0.9 1.4-3.1V3.4c0-1.9-0.8-3.2-2.9-3.2h-2.3V24.8zM30.8 11.5V1.1h1.1c1.4 0 1.9 0.8 1.9 2.3v5.5c0 1.9-0.4 2.6-1.8 2.6H30.8zM30.8 12.5H32c1.4 0 2.1 0.8 2.1 2.5v5.9c0 2.1-0.4 3-2.2 3h-1.1V12.5z"/><path class="st0" d="M39.4 24.8h4.7l0.1-1h-3.7V0.2h-1.1V24.8z"/><path class="st0" d="M52.4 19.5l0.6 5.3h1.2L51.4 0.2h-1.2l-2.7 24.6h1.1l0.6-5.3H52.4zM50.7 5.9l1.5 12.6h-2.9"/><path class="st0" d="M62.8 20.6v0.5c0 1.6-0.2 2.9-1.6 2.9 -1.3 0-1.7-1.2-1.7-3V3.7c0-1.5 0.3-2.7 1.7-2.7 1.4 0 1.6 1.3 1.6 2.6v0.5h1.1V3.6c0-1.9-0.4-3.6-2.7-3.6 -1.8 0-2.8 1.2-2.8 3.6v17.3c0 2.1 0.3 4.1 2.8 4.1 2.4 0 2.8-1.9 2.8-3.9v-0.5H62.8z"/><path class="st0" d="M69.5 0.2h-1.1v24.6h1.1v-9l0.9-3.2 3 12.3h1.2l-3.5-14.5 3.1-10.2H73l-3.5 11.4"/><path class="st0" d="M78.1 24.8h2.2c3.3 0 3.6-2.3 3.6-4.6V4.5c0-2.1-0.2-4.4-3.4-4.4h-2.4V24.8zM79.2 1.2h1.1c2.2 0 2.6 1.2 2.6 3.2v16.2c0 2.3-0.6 3.3-2.6 3.3h-1V1.2z"/><path class="st0" d="M93 11.4h-3.4V1.2h3.6v-1h-4.7v24.6h4.8l0.2-1h-3.8V12.5H93V11.4z"/><path class="st0" d="M107.8 0.2v24.6h1.1V0.2H107.8z"/><path class="st0" d="M119.4 11.6h-3v1h1.9v7.6c0 2.2-0.2 3.8-1.9 3.8 -1.3 0-1.7-1.2-1.7-2.8V3.8c0-2.1 0.6-2.8 1.8-2.8 1.6 0 1.7 1.4 1.7 2.6v0.3h1.1V3.6c0-2.1-0.6-3.6-2.8-3.6 -1.9 0-3 1.3-3 3.8v17.5c0 2.3 0.6 3.8 2.6 3.8 1 0 1.8-0.4 2.2-1.6 0 0.4 0 1.2 0.1 1.4h0.9V11.6z"/><path class="st0" d="M129.2 19.8l-3.9-19.6h-1.1v24.7h1l-0.1-18.9 4 18.9h1V0.1h-1.1"/><path class="st1" d="M99.5 11.6c-2.1-2.3-2.3-2.9-2.3-5.8 0-1.3 0-2.1 0-2.1 0-2.5 1-3.8 2.9-3.8 2.2 0 2.8 1.5 2.8 3.6v0.5h-1.1V3.7c0-1.2-0.1-2.6-1.7-2.6 -1.2 0-1.8 0.7-1.8 2.8 0 0 0-0.6 0 0.6 0 3.5-0.3 4 2 6.6 2.6 2.9 2.6 4 2.6 7.5l0 2.8c0 2.5-1 3.8-2.9 3.8 -2.2 0-2.8-1.5-2.8-3.6v-0.7h1.1v0.7c0 1.2 0.1 2.6 1.7 2.6 1.2 0 1.8-0.7 1.8-2.8 0 0 0-0.5 0-2C101.8 14.9 102 14.5 99.5 11.6z"/></svg>